# Blender v3.2.0 OBJ File: ''
# www.blender.org
mtllib fan.mtl
o Mesh
v -0.219941 -0.018620 0.000113
v -0.191136 -0.019200 -0.107381
v -0.112441 -0.019625 -0.186072
v -0.004941 -0.019780 -0.214875
v 0.102559 -0.019625 -0.186072
v 0.181254 -0.019200 -0.107381
v 0.210059 -0.018620 0.000113
v 0.181254 -0.018040 0.107607
v 0.102559 -0.017616 0.186298
v -0.004941 -0.017460 0.215100
v -0.112441 -0.017616 0.186298
v -0.191136 -0.018040 0.107607
v -0.219941 0.016387 0.000489
v -0.191136 0.016967 0.107983
v -0.112441 0.017392 0.186674
v -0.004941 0.017547 0.215476
v 0.102559 0.017392 0.186674
v 0.181254 0.016967 0.107983
v 0.210059 0.016387 0.000489
v 0.181254 0.015808 -0.107005
v 0.102559 0.015383 -0.185696
v -0.004941 0.015228 -0.214499
v -0.112441 0.015383 -0.185696
v -0.191136 0.015808 -0.107005
v -0.112441 -0.019625 -0.186072
v -0.004941 -0.019780 -0.214875
v 0.102559 -0.019625 -0.186072
v 0.210059 -0.018620 0.000113
v 0.181254 -0.018040 0.107607
v 0.102559 -0.017616 0.186298
v -0.112441 -0.017616 0.186298
v -0.191136 -0.018040 0.107607
v -0.219941 -0.018620 0.000113
v 0.181254 -0.019200 -0.107381
v 1.041169 0.047593 -0.881636
v 1.261979 0.070258 -0.723286
v 1.035089 0.082012 -0.891792
v 1.255899 0.104677 -0.733442
v 1.282439 0.127946 -0.462934
v 1.288509 0.093527 -0.452779
v 0.001137 0.116514 1.460800
v 0.248481 0.094097 1.348410
v -0.246208 0.137720 1.348870
v -0.258363 0.103244 1.348500
v -0.004941 -0.017460 0.215100
v -0.011019 0.082038 1.460430
v 0.236326 0.059622 1.348040
v -0.191136 -0.019200 -0.107381
v -1.265781 0.070201 -0.733812
v -1.044971 0.091160 -0.891693
v -1.292321 0.049848 -0.463774
v -1.298391 0.084380 -0.452877
v -1.271861 0.104733 -0.722916
v -1.051051 0.125692 -0.880797
vt 0.491481 0.814705
vt 0.426777 0.926777
vt 0.314705 0.991481
vt 0.185295 0.991481
vt 0.073223 0.926777
vt 0.008519 0.814705
vt 0.008519 0.685295
vt 0.073223 0.573223
vt 0.185295 0.508519
vt 0.314705 0.508519
vt 0.426777 0.573223
vt 0.491481 0.685295
vt 0.991481 0.814705
vt 0.991481 0.685295
vt 0.926777 0.573223
vt 0.814705 0.508519
vt 0.685295 0.508519
vt 0.573223 0.573223
vt 0.508519 0.685295
vt 0.508519 0.814705
vt 0.573223 0.926777
vt 0.685295 0.991481
vt 0.814705 0.991481
vt 0.926777 0.926777
vt 0.166667 0.500000
vt 0.166667 0.000000
vt 0.250000 0.000000
vt 0.250000 0.500000
vt 0.333333 0.000000
vt 0.333333 0.500000
vt 0.500000 0.500000
vt 0.500000 0.000000
vt 0.583333 0.000000
vt 0.583333 0.500000
vt 0.666667 0.000000
vt 0.666667 0.500000
vt 0.833333 0.500000
vt 0.833333 0.000000
vt 0.916667 0.000000
vt 0.916667 0.500000
vt 1.000000 0.000000
vt 1.000000 0.500000
vt 0.416667 0.500000
vt 0.333333 0.500000
vt 0.416667 0.500000
vt 0.333333 0.000000
vt 0.416667 0.000000
vt 0.416667 0.000000
vt 0.500000 0.000000
vt 0.500000 0.500000
vt 0.750000 0.000000
vt 0.750000 0.000000
vt 0.666667 0.000000
vt 0.833333 0.000000
vt 0.833333 0.500000
vt 0.750000 0.500000
vt 0.750000 0.500000
vt 0.666667 0.500000
vt 0.083333 0.500000
vt 0.083333 0.500000
vt 0.166667 0.500000
vt 0.000000 0.500000
vt 0.000000 0.500000
vt 0.000000 0.000000
vt 0.000000 0.000000
vt 0.083333 0.000000
vt 0.083333 0.000000
vt 0.166667 0.000000
vn -0.0000 -1.0000 0.0054
vn 0.0293 0.9996 0.0025
vn 0.0000 1.0000 -0.0054
vn 0.0099 0.9991 -0.0424
vn 0.0014 0.9988 -0.0496
vn -0.0078 0.9994 -0.0347
vn -0.0370 0.9993 0.0045
vn -0.0390 0.9991 0.0155
vn -0.0215 0.9996 0.0161
vn 0.0271 0.9994 0.0217
vn 0.0376 0.9991 0.0179
vn -0.2588 0.0104 -0.9659
vn 0.0000 0.0107 -0.9999
vn 0.2588 0.0104 -0.9659
vn 0.9659 -0.0028 0.2588
vn 0.8660 -0.0054 0.5000
vn 0.7070 -0.0076 0.7071
vn -0.7070 -0.0076 0.7071
vn -0.8660 -0.0054 0.5000
vn -0.8660 -0.0053 0.5000
vn -0.9659 -0.0028 0.2588
vn 0.0748 -0.9966 -0.0347
vn 0.0545 -0.9973 -0.0491
vn 0.0748 -0.9966 -0.0346
vn -0.5958 0.0086 -0.8031
vn -0.0585 0.9979 0.0260
vn -0.0429 0.9984 0.0375
vn -0.0740 0.9972 0.0145
vn 0.3975 -0.0099 0.9175
vn 0.3975 -0.0098 0.9175
vn 0.0951 -0.9953 -0.0201
vn 0.0021 0.9974 -0.0716
vn -0.0157 0.9978 -0.0639
vn 0.0198 0.9967 -0.0793
vn -0.9934 0.0012 -0.1145
vn -0.0254 -0.9946 0.1002
vn -0.0027 -0.9959 0.0900
vn -0.0028 -0.9959 0.0900
vn 0.0199 -0.9966 0.0797
vn 0.9934 0.0012 -0.1145
vn -0.0696 -0.9955 -0.0643
vn -0.0721 -0.9966 -0.0394
vn -0.0745 -0.9971 -0.0146
vn -0.0744 -0.9971 -0.0146
vn -0.3975 -0.0099 0.9175
vn -0.3975 -0.0098 0.9175
vn 0.0564 0.9980 0.0296
vn 0.0586 0.9982 0.0103
vn 0.0542 0.9973 0.0488
vn 0.5958 0.0086 -0.8031
vn -0.9844 -0.1393 -0.1072
vn -0.5845 0.1488 -0.7977
vn 0.5866 -0.1322 -0.7990
vn 0.9839 0.1416 -0.1087
vn 0.3977 -0.1499 0.9052
vn -0.3994 0.1311 0.9074
usemtl Default
s 1
f 1/1/1 2/2/1 3/3/1 4/4/1 5/5/1 6/6/1 7/7/1 8/8/1 9/9/1 10/10/1 11/11/1 12/12/1
usemtl Wing
f 13/13/2 14/14/3 15/15/4 16/16/5 17/17/6 18/18/3 19/19/7 20/20/8 21/21/9 22/22/3 23/23/10 24/24/11
f 25/25/12 23/26/12 22/27/13 26/28/13
f 26/28/13 22/27/13 21/29/14 27/30/14
f 28/31/15 19/32/15 18/33/16 29/34/16
f 29/34/16 18/33/16 17/35/17 30/36/17
f 31/37/18 15/38/18 14/39/19 32/40/20
f 32/40/20 14/39/19 13/41/21 33/42/21
f 34/43/22 27/30/23 35/44/23 36/45/24
f 27/30/25 21/29/25 37/46/25 35/44/25
f 21/29/9 20/47/8 38/48/26 37/46/27
f 20/47/8 19/32/7 39/49/28 38/48/26
f 19/32/29 28/31/30 40/50/30 39/49/29
f 28/31/31 34/43/22 36/45/24 40/50/31
f 17/35/6 16/51/5 41/52/32 42/53/33
f 16/51/5 15/38/4 43/54/34 41/52/32
f 15/38/35 31/37/35 44/55/35 43/54/35
f 31/37/36 45/56/37 46/57/38 44/55/36
f 45/56/37 30/36/39 47/58/39 46/57/38
f 30/36/40 17/35/40 42/53/40 47/58/40
f 25/25/41 48/59/42 49/60/42 50/61/41
f 48/59/42 33/62/43 51/63/44 49/60/42
f 33/62/45 13/64/46 52/65/46 51/63/45
f 13/64/2 24/66/11 53/67/47 52/65/48
f 24/66/11 23/26/10 54/68/49 53/67/47
f 23/26/50 25/25/50 50/61/50 54/68/50
f 51/63/51 52/65/51 53/67/51 49/60/51
f 49/60/52 53/67/52 54/68/52 50/61/52
f 35/44/53 37/46/53 38/48/53 36/45/53
f 36/45/54 38/48/54 39/49/54 40/50/54
f 47/58/55 42/53/55 41/52/55 46/57/55
f 46/57/56 41/52/56 43/54/56 44/55/56
o Mesh_(2)
v -0.112441 -0.019625 -0.186072
v -0.004941 -0.019780 -0.214875
v -0.004941 -0.104561 -0.174041
v -0.092254 -0.104435 -0.150647
v 0.102559 -0.019625 -0.186072
v 0.082372 -0.104435 -0.150647
v 0.181254 -0.019200 -0.107381
v 0.146288 -0.104090 -0.086734
v 0.210059 -0.018620 0.000113
v 0.169683 -0.103619 0.000571
v 0.181254 -0.018040 0.107607
v 0.146288 -0.103148 0.087877
v 0.102559 -0.017616 0.186298
v 0.082372 -0.102803 0.151790
v -0.004941 -0.017460 0.215100
v -0.004941 -0.102677 0.175184
v -0.112441 -0.017616 0.186298
v -0.092254 -0.102803 0.151790
v -0.191136 -0.018040 0.107607
v -0.156170 -0.103148 0.087877
v -0.219941 -0.018620 0.000113
v -0.179565 -0.103619 0.000571
v -0.191136 -0.019200 -0.107381
v -0.156170 -0.104090 -0.086734
v 0.086861 -0.118619 0.000652
v 0.074563 -0.118866 -0.045242
v 0.074563 -0.118371 0.046546
v 0.040962 -0.118190 0.080145
v -0.004941 -0.118123 0.092444
v -0.050844 -0.118190 0.080145
v -0.084445 -0.118371 0.046546
v -0.096743 -0.118619 0.000652
v -0.084445 -0.118866 -0.045242
v -0.050844 -0.119048 -0.078841
v -0.004941 -0.119114 -0.091140
v 0.040962 -0.119048 -0.078841
v 0.028021 -0.158310 0.057947
v 0.052149 -0.158440 0.033821
v -0.004941 -0.158263 0.066778
v -0.037903 -0.158310 0.057947
v -0.062030 -0.158440 0.033821
v -0.070861 -0.158618 0.000868
v -0.062030 -0.158796 -0.032085
v -0.037903 -0.158926 -0.056211
v -0.004941 -0.158974 -0.065042
v 0.028021 -0.158926 -0.056211
v 0.052149 -0.158796 -0.032085
v 0.060979 -0.158618 0.000868
v -0.112441 0.015375 -0.186270
v -0.191136 0.015799 -0.107579
v -0.174102 0.080852 -0.098095
v -0.102606 0.080466 -0.169586
v -0.219941 0.016379 -0.000085
v -0.200271 0.081378 -0.000436
v -0.191136 0.016959 0.107409
v -0.174102 0.081905 0.097222
v -0.112441 0.017384 0.186099
v -0.102606 0.082291 0.168714
v -0.004941 0.017539 0.214902
v -0.004941 0.082432 0.194882
v 0.102559 0.017384 0.186099
v 0.092724 0.082291 0.168714
v 0.181254 0.016959 0.107409
v 0.164220 0.081905 0.097222
v 0.210059 0.016379 -0.000085
v 0.190389 0.081378 -0.000436
v 0.181254 0.015799 -0.107579
v 0.164220 0.080852 -0.098095
v 0.102559 0.015375 -0.186270
v 0.092724 0.080466 -0.169586
v -0.004941 0.015220 -0.215073
v -0.004941 0.080325 -0.195753
v -0.004941 0.082080 0.129661
v -0.069996 0.081986 0.112230
v 0.060114 0.081986 0.112230
v 0.107736 0.081729 0.064611
v 0.125166 0.081378 -0.000436
v 0.107736 0.081027 -0.065483
v 0.060114 0.080771 -0.113102
v -0.004941 0.080677 -0.130532
v -0.069996 0.080771 -0.113102
v -0.117618 0.081027 -0.065483
v -0.135048 0.081378 -0.000436
v -0.117618 0.081729 0.064611
v -0.069996 0.125770 -0.113345
v -0.004941 0.125676 -0.130775
v -0.117618 0.126027 -0.065726
v -0.135048 0.126377 -0.000679
v -0.117618 0.126728 0.064368
v -0.069996 0.126985 0.111987
v -0.004941 0.127079 0.129418
v 0.060114 0.126985 0.111987
v 0.107736 0.126728 0.064368
v 0.125166 0.126377 -0.000679
v 0.107736 0.126027 -0.065726
v 0.060114 0.125770 -0.113345
v -0.004941 0.126134 -0.045884
v 0.017669 0.126166 -0.039826
v -0.027551 0.126166 -0.039826
v -0.044099 0.126256 -0.023279
v -0.050155 0.126377 -0.000679
v -0.044099 0.126499 0.021921
v -0.027551 0.126589 0.038469
v -0.004941 0.126621 0.044526
v 0.017669 0.126589 0.038469
v 0.034217 0.126499 0.021921
v 0.040273 0.126377 -0.000679
v 0.034217 0.126256 -0.023279
vt 0.314705 0.991481
vt 0.185295 0.991481
vt 0.197033 0.947677
vt 0.302967 0.947677
vt 0.073223 0.926777
vt 0.105291 0.894709
vt 0.008519 0.814705
vt 0.052323 0.802967
vt 0.008519 0.685295
vt 0.052323 0.697033
vt 0.073223 0.573223
vt 0.105291 0.605291
vt 0.185295 0.508519
vt 0.197033 0.552323
vt 0.314705 0.508519
vt 0.302967 0.552323
vt 0.426777 0.573223
vt 0.394709 0.605291
vt 0.491481 0.685295
vt 0.447677 0.697033
vt 0.491481 0.814705
vt 0.447677 0.802967
vt 0.426777 0.926777
vt 0.394709 0.894709
vt 0.142887 0.721299
vt 0.142887 0.778701
vt 0.171588 0.671588
vt 0.221299 0.642887
vt 0.278701 0.642887
vt 0.328412 0.671588
vt 0.357113 0.721299
vt 0.357113 0.778701
vt 0.328412 0.828412
vt 0.278701 0.857113
vt 0.221299 0.857113
vt 0.171588 0.828412
vt 0.229116 0.672059
vt 0.192943 0.692943
vt 0.270884 0.672059
vt 0.307057 0.692943
vt 0.327941 0.729116
vt 0.327941 0.770884
vt 0.307057 0.807057
vt 0.270884 0.827942
vt 0.229116 0.827942
vt 0.192943 0.807057
vt 0.172059 0.770884
vt 0.172059 0.729116
vt 0.314705 0.991481
vt 0.426777 0.926777
vt 0.442399 0.942399
vt 0.320423 1.012820
vt 0.491481 0.814705
vt 0.512822 0.820423
vt 0.491481 0.685295
vt 0.512822 0.679577
vt 0.426777 0.573223
vt 0.442399 0.557601
vt 0.314705 0.508519
vt 0.320423 0.487178
vt 0.185295 0.508519
vt 0.179577 0.487178
vt 0.073223 0.573223
vt 0.057601 0.557601
vt 0.008519 0.685295
vt -0.012822 0.679577
vt 0.008519 0.814705
vt -0.012822 0.820423
vt 0.073223 0.926777
vt 0.057601 0.942399
vt 0.185295 0.991481
vt 0.179577 1.012820
vt 0.343137 0.402407
vt 0.504456 0.495544
vt 0.156863 0.402407
vt -0.004456 0.495544
vt -0.097593 0.656863
vt -0.097593 0.843137
vt -0.004456 1.004460
vt 0.156863 1.097590
vt 0.343137 1.097590
vt 0.504456 1.004460
vt 0.597593 0.843137
vt 0.597593 0.656863
vt 0.343137 1.097590
vt 0.156863 1.097590
vt 0.504456 1.004460
vt 0.597593 0.843137
vt 0.597593 0.656863
vt 0.504456 0.495544
vt 0.343137 0.402407
vt 0.156863 0.402407
vt -0.004456 0.495544
vt -0.097593 0.656863
vt -0.097593 0.843137
vt -0.004456 1.004460
vt 0.098160 1.316670
vt -0.164834 1.164830
vt 0.401840 1.316670
vt 0.664834 1.164830
vt 0.816673 0.901840
vt 0.816673 0.598161
vt 0.664834 0.335167
vt 0.401840 0.183327
vt 0.098160 0.183327
vt -0.164834 0.335166
vt -0.316673 0.598160
vt -0.316673 0.901839
vn -0.4516 -0.4333 -0.7799
vn -0.0000 -0.4339 -0.9009
vn 0.4516 -0.4333 -0.7799
vn 0.7823 -0.4315 -0.4493
vn 0.9033 -0.4291 0.0023
vn 0.7823 -0.4266 0.4540
vn 0.4516 -0.4248 0.7846
vn -0.0000 -0.4242 0.9056
vn -0.4516 -0.4248 0.7846
vn -0.7823 -0.4266 0.4540
vn -0.9033 -0.4291 0.0023
vn -0.7823 -0.4315 -0.4493
vn 0.1543 -0.9845 -0.0838
vn 0.1782 -0.9840 0.0053
vn 0.1543 -0.9835 0.0944
vn 0.0891 -0.9831 0.1596
vn -0.0000 -0.9830 0.1835
vn -0.0891 -0.9831 0.1596
vn -0.1543 -0.9835 0.0944
vn -0.1782 -0.9840 0.0053
vn -0.1543 -0.9845 -0.0838
vn -0.0891 -0.9848 -0.1490
vn -0.0000 -0.9849 -0.1729
vn 0.0891 -0.9848 -0.1490
vn 0.7271 -0.5410 0.4227
vn 0.4198 -0.5393 0.7300
vn 0.0000 -0.5387 0.8425
vn -0.4198 -0.5393 0.7300
vn -0.7271 -0.5410 0.4227
vn -0.8396 -0.5432 0.0029
vn -0.7271 -0.5455 -0.4169
vn -0.4198 -0.5472 -0.7242
vn 0.0000 -0.5478 -0.8366
vn 0.4198 -0.5472 -0.7242
vn 0.7271 -0.5455 -0.4169
vn 0.8396 -0.5432 0.0029
vn 0.0000 -1.0000 0.0054
vn -0.4786 0.2852 -0.8305
vn -0.8289 0.2871 -0.4801
vn -0.9571 0.2896 -0.0016
vn -0.8289 0.2922 0.4770
vn -0.4786 0.2941 0.8273
vn 0.0000 0.2948 0.9556
vn 0.4786 0.2941 0.8273
vn 0.8289 0.2922 0.4770
vn 0.9571 0.2896 -0.0016
vn 0.8289 0.2871 -0.4801
vn 0.4786 0.2852 -0.8305
vn 0.0000 0.2845 -0.9587
vn 0.0000 1.0000 -0.0054
vn -0.0000 -0.0054 -1.0000
vn -0.5000 -0.0047 -0.8660
vn -0.8660 -0.0027 -0.5000
vn -1.0000 0.0000 -0.0000
vn -0.8660 0.0027 0.5000
vn -0.5000 0.0047 0.8660
vn -0.0000 0.0054 1.0000
vn 0.5000 0.0047 0.8660
vn 0.8660 0.0027 0.5000
vn 1.0000 -0.0000 -0.0000
vn 0.8660 -0.0027 -0.5000
vn 0.5000 -0.0047 -0.8660
usemtl Holder
s 1
f 55/69/57 56/70/58 57/71/58 58/72/57
f 56/70/58 59/73/59 60/74/59 57/71/58
f 59/73/59 61/75/60 62/76/60 60/74/59
f 61/75/60 63/77/61 64/78/61 62/76/60
f 63/77/61 65/79/62 66/80/62 64/78/61
f 65/79/62 67/81/63 68/82/63 66/80/62
f 67/81/63 69/83/64 70/84/64 68/82/63
f 69/83/64 71/85/65 72/86/65 70/84/64
f 71/85/65 73/87/66 74/88/66 72/86/65
f 73/87/66 75/89/67 76/90/67 74/88/66
f 75/89/67 77/91/68 78/92/68 76/90/67
f 77/91/68 55/69/57 58/72/57 78/92/68
f 62/76/69 64/78/70 79/93/70 80/94/69
f 64/78/70 66/80/71 81/95/71 79/93/70
f 66/80/71 68/82/72 82/96/72 81/95/71
f 68/82/72 70/84/73 83/97/73 82/96/72
f 70/84/73 72/86/74 84/98/74 83/97/73
f 72/86/74 74/88/75 85/99/75 84/98/74
f 74/88/75 76/90/76 86/100/76 85/99/75
f 76/90/76 78/92/77 87/101/77 86/100/76
f 78/92/77 58/72/78 88/102/78 87/101/77
f 58/72/78 57/71/79 89/103/79 88/102/78
f 57/71/79 60/74/80 90/104/80 89/103/79
f 60/74/80 62/76/69 80/94/69 90/104/80
f 81/95/81 82/96/82 91/105/82 92/106/81
f 82/96/82 83/97/83 93/107/83 91/105/82
f 83/97/83 84/98/84 94/108/84 93/107/83
f 84/98/84 85/99/85 95/109/85 94/108/84
f 85/99/85 86/100/86 96/110/86 95/109/85
f 86/100/86 87/101/87 97/111/87 96/110/86
f 87/101/87 88/102/88 98/112/88 97/111/87
f 88/102/88 89/103/89 99/113/89 98/112/88
f 89/103/89 90/104/90 100/114/90 99/113/89
f 90/104/90 80/94/91 101/115/91 100/114/90
f 80/94/91 79/93/92 102/116/92 101/115/91
f 79/93/92 81/95/81 92/106/81 102/116/92
f 96/110/93 97/111/93 98/112/93 99/113/93 100/114/93 101/115/93 102/116/93 92/106/93 91/105/93 93/107/93 94/108/93 95/109/93
f 103/117/94 104/118/95 105/119/95 106/120/94
f 104/118/95 107/121/96 108/122/96 105/119/95
f 107/121/96 109/123/97 110/124/97 108/122/96
f 109/123/97 111/125/98 112/126/98 110/124/97
f 111/125/98 113/127/99 114/128/99 112/126/98
f 113/127/99 115/129/100 116/130/100 114/128/99
f 115/129/100 117/131/101 118/132/101 116/130/100
f 117/131/101 119/133/102 120/134/102 118/132/101
f 119/133/102 121/135/103 122/136/103 120/134/102
f 121/135/103 123/137/104 124/138/104 122/136/103
f 123/137/104 125/139/105 126/140/105 124/138/104
f 125/139/105 103/117/94 106/120/94 126/140/105
f 112/126/106 114/128/106 127/141/106 128/142/106
f 114/128/106 116/130/106 129/143/106 127/141/106
f 116/130/106 118/132/106 130/144/106 129/143/106
f 118/132/106 120/134/106 131/145/106 130/144/106
f 120/134/106 122/136/106 132/146/106 131/145/106
f 122/136/106 124/138/106 133/147/106 132/146/106
f 124/138/106 126/140/106 134/148/106 133/147/106
f 126/140/106 106/120/106 135/149/106 134/148/106
f 106/120/106 105/119/106 136/150/106 135/149/106
f 105/119/106 108/122/106 137/151/106 136/150/106
f 108/122/106 110/124/106 138/152/106 137/151/106
f 110/124/106 112/126/106 128/142/106 138/152/106
f 134/148/107 135/149/108 139/153/108 140/154/107
f 135/149/108 136/150/109 141/155/109 139/153/108
f 136/150/109 137/151/110 142/156/110 141/155/109
f 137/151/110 138/152/111 143/157/111 142/156/110
f 138/152/111 128/142/112 144/158/112 143/157/111
f 128/142/112 127/141/113 145/159/113 144/158/112
f 127/141/113 129/143/114 146/160/114 145/159/113
f 129/143/114 130/144/115 147/161/115 146/160/114
f 130/144/115 131/145/116 148/162/116 147/161/115
f 131/145/116 132/146/117 149/163/117 148/162/116
f 132/146/117 133/147/118 150/164/118 149/163/117
f 133/147/118 134/148/107 140/154/107 150/164/118
f 150/164/106 140/154/106 151/165/106 152/166/106
f 140/154/106 139/153/106 153/167/106 151/165/106
f 139/153/106 141/155/106 154/168/106 153/167/106
f 141/155/106 142/156/106 155/169/106 154/168/106
f 142/156/106 143/157/106 156/170/106 155/169/106
f 143/157/106 144/158/106 157/171/106 156/170/106
f 144/158/106 145/159/106 158/172/106 157/171/106
f 145/159/106 146/160/106 159/173/106 158/172/106
f 146/160/106 147/161/106 160/174/106 159/173/106
f 147/161/106 148/162/106 161/175/106 160/174/106
f 148/162/106 149/163/106 162/176/106 161/175/106
f 149/163/106 150/164/106 152/166/106 162/176/106
