# Blender v3.2.0 OBJ File: ''
# www.blender.org
mtllib skybox2.mtl
o Cube
v 1.000000 1.000000 -1.000000
v 1.000000 -1.000000 -1.000000
v 1.000000 1.000000 1.000000
v 1.000000 -1.000000 1.000000
v -1.000000 1.000000 -1.000000
v -1.000000 -1.000000 -1.000000
v -1.000000 1.000000 1.000000
v -1.000000 -1.000000 1.000000
vt 0.497212 0.666009
vt 0.497130 0.998009
vt 0.251859 0.997472
vt 0.251941 0.665472
vt 0.252023 0.333471
vt 0.006670 0.664934
vt 0.006752 0.332934
vt 0.987836 0.335083
vt 0.987754 0.667083
vt 0.742483 0.666546
vt 0.742565 0.334545
vt 0.497376 0.002007
vt 0.497294 0.334008
vt 0.252105 0.001470
vn 0.0000 1.0000 0.0000
vn 0.0000 0.0000 1.0000
vn -1.0000 0.0000 0.0000
vn 0.0000 -1.0000 0.0000
vn 1.0000 0.0000 0.0000
vn 0.0000 0.0000 -1.0000
usemtl Material
s off
f 1/1/1 5/2/1 7/3/1 3/4/1
f 4/5/2 3/4/2 7/6/2 8/7/2
f 8/8/3 7/9/3 5/10/3 6/11/3
f 6/12/4 2/13/4 4/5/4 8/14/4
f 2/13/5 1/1/5 3/4/5 4/5/5
f 6/11/6 5/10/6 1/1/6 2/13/6
